<?xml version="1.0" standalone="no"?>
<!DOCTYPE svg PUBLIC "-//W3C//DTD SVG 20010904//EN"
 "http://www.w3.org/TR/2001/REC-SVG-20010904/DTD/svg10.dtd">
<svg version="1.0" xmlns="http://www.w3.org/2000/svg"
 width="1000.000000pt" height="1000.000000pt" viewBox="0 0 1000.000000 1000.000000"
 preserveAspectRatio="xMidYMid meet">
<metadata>
Created by potrace 1.11, written by Peter Selinger 2001-2013
</metadata>
<g transform="translate(0.000000,1000.000000) scale(0.100000,-0.100000)"
fill="#000000" stroke="none">
<path d="M5 9133 c4 -478 10 -915 14 -973 5 -67 8 55 9 339 1 244 4 442 6 440
3 -2 11 -265 18 -584 18 -816 18 -5904 0 -6720 -7 -319 -15 -582 -18 -584 -2
-2 -5 196 -6 440 -1 284 -4 406 -9 339 -4 -58 -10 -493 -14 -967 l-8 -863
5001 0 5002 0 -1 468 c-1 257 -5 478 -9 492 -7 23 -8 23 -9 3 -1 -12 -6 -25
-11 -28 -6 -4 -11 51 -12 157 l-1 163 -8 -235 c-10 -275 -15 -326 -19 -180
l-3 105 -7 -93 c-5 -51 -11 -96 -14 -99 -3 -4 -6 32 -7 78 l0 84 -15 -45 c-7
-25 -14 -78 -14 -117 0 -40 -4 -73 -9 -73 -5 0 -13 26 -18 58 -11 75 -11 8439
0 8515 5 31 13 57 18 57 5 0 9 -33 9 -72 0 -40 7 -93 14 -118 l15 -45 0 84 c1
46 4 82 7 78 3 -3 9 -48 14 -99 l7 -93 3 105 c4 146 9 95 19 -180 l8 -235 1
163 c1 106 6 161 12 157 6 -3 10 -16 11 -28 1 -20 2 -20 9 3 4 14 8 238 9 498
l1 472 -5002 0 -5001 0 8 -867z m2235 -343 l4 465 7 -600 c3 -330 8 -690 10
-800 3 -183 3 -191 9 -90 3 61 6 -1186 6 -2770 0 -1584 -2 -2830 -5 -2770 -7
130 -20 -477 -23 -1090 l-3 -400 -5 465 -5 465 -4 -595 -4 -595 -11 795 c-12
997 -13 6384 0 7450 l9 795 5 -595 5 -595 5 465z m3485 558 c6 -92 8 -97 26
-88 16 9 19 7 20 -17 2 -22 3 -20 9 12 4 23 8 30 9 17 0 -13 5 -32 11 -42 5
-10 14 -49 19 -87 l8 -68 4 105 3 105 6 -100 c6 -98 6 -98 9 -30 2 39 7 97 11
130 7 59 7 59 10 -35 1 -52 4 -86 7 -75 15 73 19 38 23 -230 l5 -300 3 308 c1
172 6 306 11 303 4 -3 12 -20 17 -38 7 -29 9 -23 14 42 6 71 7 68 8 -43 1 -76
6 -116 12 -112 6 3 10 34 10 68 0 86 11 168 21 161 5 -3 10 -125 11 -272 2
-259 2 -262 8 -107 4 88 9 192 10 230 l4 70 6 -80 6 -80 4 120 4 120 5 -95 c7
-104 21 -100 21 6 0 36 4 64 10 64 6 0 10 -41 11 -102 1 -123 16 -106 20 22 3
84 3 83 9 -35 5 -102 6 -108 8 -43 3 101 21 113 24 16 1 -40 5 1 8 92 6 161 6
162 9 55 3 -79 6 -100 11 -75 l7 35 2 -43 c0 -26 5 -41 11 -37 6 3 11 -2 12
-12 1 -10 5 27 8 82 l6 100 4 -155 4 -155 6 155 6 155 3 -110 c3 -115 18 -116
20 0 1 88 18 56 28 -55 l9 -95 8 90 c10 116 13 127 31 95 11 -20 14 -21 15 -7
0 10 4 16 10 12 5 -3 11 28 13 77 1 46 5 -52 7 -217 5 -296 5 -297 7 -86 3
187 5 212 18 201 13 -10 15 -9 15 11 1 29 28 82 31 59 1 -8 5 -78 8 -155 l8
-140 3 130 c2 103 4 120 11 85 4 -25 8 -69 8 -97 2 -91 21 -59 22 35 1 78 2
83 11 49 l10 -38 14 27 c8 14 15 36 16 48 1 11 4 -8 8 -44 6 -57 7 -50 10 60
l3 125 7 -95 c4 -52 8 -207 9 -345 1 -142 5 -256 11 -265 6 -10 10 96 10 310
1 258 3 321 13 305 7 -13 13 -82 16 -190 5 -202 20 -169 20 48 1 84 5 137 11
137 6 0 10 -6 10 -12 0 -9 4 -8 10 2 7 10 10 -15 11 -80 1 -52 5 -180 8 -285
l7 -190 3 225 c3 228 15 460 21 405 1 -16 6 -124 10 -240 l6 -210 4 180 c2
120 5 163 10 130 l7 -50 4 65 c2 36 6 -18 9 -120 l6 -185 2 198 c3 280 21 258
25 -30 l2 -228 3 248 c1 136 6 247 11 247 4 0 11 -48 15 -107 3 -60 11 -162
16 -228 5 -66 10 -343 11 -615 1 -272 5 -508 9 -525 4 -16 9 152 11 375 2 241
5 363 9 300 6 -96 6 -87 10 95 l5 200 2 -192 c3 -176 10 -221 27 -177 3 9 7
55 8 102 l2 87 6 -100 6 -100 3 125 c2 69 6 170 10 225 l7 100 6 -95 c4 -52
10 -282 14 -510 9 -604 20 -652 25 -105 2 308 5 410 9 310 6 -144 6 -146 8
-45 2 72 5 100 12 90 5 -8 10 -45 10 -82 0 -36 5 -68 10 -70 6 -2 14 -23 19
-48 7 -38 9 -27 12 75 3 104 4 93 9 -85 4 -164 6 -116 9 240 3 519 17 679 22
255 l3 -280 5 257 c4 141 9 260 14 264 4 4 7 -171 7 -390 0 -262 3 -395 10
-391 6 4 11 185 12 503 l3 497 5 -555 c3 -305 7 -508 10 -450 3 58 7 -104 10
-360 5 -417 6 -372 10 445 3 690 6 827 10 565 3 -190 7 -346 8 -348 1 -2 7 0
12 3 6 4 10 123 10 323 0 187 4 323 10 332 6 10 10 -84 11 -275 1 -159 5 -362
9 -450 5 -132 7 -88 10 250 l4 410 6 -342 c3 -188 8 -345 13 -349 4 -4 8 148
9 337 1 206 4 300 8 234 5 -94 6 -102 11 -55 3 30 7 -156 9 -415 l5 -470 5
390 c3 215 5 -1396 5 -3580 0 -2183 -2 -3794 -5 -3580 l-5 390 -5 -470 c-2
-258 -6 -445 -9 -415 -5 47 -6 39 -11 -55 -4 -66 -7 28 -8 234 -1 189 -5 341
-9 337 -5 -4 -10 -161 -13 -349 l-6 -342 -4 410 c-3 338 -5 382 -10 250 -4
-88 -8 -290 -9 -450 -1 -191 -5 -285 -11 -275 -6 9 -10 145 -10 332 0 200 -4
319 -10 323 -5 3 -11 5 -12 3 -1 -2 -5 -158 -8 -348 -4 -262 -7 -125 -10 565
-4 817 -5 862 -10 445 -3 -256 -7 -418 -10 -360 -3 58 -7 -145 -10 -450 l-5
-555 -3 497 c-1 318 -6 499 -12 503 -7 4 -10 -129 -10 -391 0 -219 -3 -394 -7
-390 -5 4 -10 123 -14 264 l-5 257 -3 -280 c-5 -424 -19 -264 -22 255 -3 356
-5 404 -9 240 -5 -178 -6 -189 -9 -85 -3 102 -5 113 -12 75 -5 -25 -13 -46
-19 -48 -5 -2 -10 -34 -10 -70 0 -37 -5 -74 -10 -82 -7 -10 -10 18 -12 90 -2
101 -2 99 -8 -45 -4 -100 -7 2 -9 310 -5 547 -16 499 -25 -105 -4 -228 -10
-458 -14 -510 l-6 -95 -7 100 c-4 55 -8 156 -10 225 l-3 125 -6 -100 -6 -100
-2 87 c-1 47 -5 93 -8 102 -17 44 -24 -1 -27 -176 l-2 -193 -5 200 c-4 182 -4
191 -10 95 -4 -63 -7 59 -9 300 -2 223 -7 392 -11 375 -4 -16 -8 -253 -9 -525
-1 -272 -6 -549 -11 -615 -5 -66 -13 -168 -16 -228 -4 -59 -11 -107 -15 -107
-5 0 -10 111 -11 248 l-3 247 -2 -227 c-4 -289 -22 -311 -25 -30 l-2 197 -6
-185 c-3 -102 -7 -156 -9 -120 l-4 65 -7 -50 c-5 -33 -8 10 -10 130 l-4 180
-6 -210 c-4 -116 -9 -223 -10 -240 -6 -55 -18 177 -21 405 l-3 225 -7 -190
c-3 -104 -7 -233 -8 -285 -1 -65 -4 -90 -11 -80 -6 10 -10 11 -10 3 0 -7 -4
-13 -10 -13 -6 0 -10 53 -11 138 0 216 -15 249 -20 47 -3 -108 -9 -177 -16
-190 -10 -16 -12 47 -13 305 0 214 -4 320 -10 310 -6 -9 -10 -123 -11 -265 -1
-137 -5 -293 -9 -345 l-7 -95 -3 125 c-3 110 -4 117 -10 60 -4 -36 -7 -55 -8
-44 -1 12 -8 34 -16 48 l-14 27 -10 -38 c-9 -34 -10 -29 -11 50 -1 93 -20 125
-22 35 0 -29 -4 -73 -8 -98 -7 -35 -9 -18 -11 85 l-3 130 -8 -140 c-3 -77 -7
-147 -8 -155 -3 -23 -30 30 -31 59 0 20 -2 21 -15 11 -13 -11 -15 14 -18 201
-2 211 -2 210 -7 -86 -2 -165 -6 -263 -7 -217 -2 49 -8 80 -13 77 -6 -4 -10 2
-10 12 -1 14 -4 13 -15 -7 -18 -32 -21 -21 -31 95 l-8 90 -9 -95 c-10 -111
-27 -143 -28 -54 -2 115 -17 114 -20 -1 l-3 -110 -6 155 -6 155 -4 -155 -4
-155 -6 100 c-3 55 -7 92 -8 82 -1 -10 -6 -15 -12 -12 -6 4 -11 -11 -11 -37
l-2 -43 -7 35 c-5 25 -8 4 -11 -75 -3 -107 -3 -106 -9 55 -3 91 -7 132 -8 92
-3 -97 -21 -85 -24 16 -2 65 -3 59 -8 -43 -6 -118 -6 -119 -9 -35 -4 128 -19
145 -20 23 -1 -62 -5 -103 -11 -103 -6 0 -10 28 -10 64 0 106 -14 110 -21 6
l-5 -95 -4 120 -4 120 -6 -80 -6 -80 -4 70 c-1 39 -6 142 -10 230 -6 155 -6
152 -8 -107 -1 -147 -6 -269 -11 -272 -10 -7 -21 75 -21 161 0 34 -4 65 -10
68 -6 4 -11 -36 -12 -112 -1 -111 -2 -114 -8 -43 -5 65 -7 71 -14 42 -5 -18
-13 -35 -17 -38 -5 -3 -10 131 -11 303 l-3 308 -5 -300 c-4 -268 -8 -303 -23
-230 -3 11 -6 -23 -7 -75 -3 -94 -3 -94 -10 -35 -4 33 -9 92 -11 130 -3 68 -3
68 -9 -30 l-6 -100 -3 105 -4 105 -8 -68 c-5 -38 -14 -77 -19 -87 -6 -10 -11
-29 -11 -42 -1 -13 -5 -6 -9 17 -6 32 -7 34 -9 12 -1 -24 -4 -26 -20 -18 -17
9 -19 5 -25 -57 -3 -37 -6 -92 -7 -122 -2 -98 -17 -16 -20 110 l-3 115 -6
-105 c-3 -58 -7 -92 -8 -77 -1 16 -6 25 -12 22 -6 -4 -11 44 -11 137 -1 86 -4
127 -9 103 -6 -36 -7 -38 -13 -15 -4 14 -8 50 -10 80 -2 30 -5 -21 -7 -115 -1
-93 -5 -160 -7 -147 -2 12 -9 20 -14 16 -6 -3 -13 5 -17 17 -6 23 -6 23 -13
-6 -5 -21 -7 -8 -9 45 -2 89 -17 62 -19 -34 -2 -97 -13 -56 -21 76 l-7 123 -1
-117 c-1 -65 -4 -118 -6 -118 -2 0 -11 -3 -20 -6 -14 -5 -16 4 -17 57 -1 35
-4 53 -6 39 -2 -14 -8 -34 -13 -45 -5 -11 -11 -27 -13 -35 -3 -8 -6 12 -7 45
-2 49 -4 55 -10 30 -4 -17 -9 68 -11 200 l-3 230 -6 -220 -6 -220 -3 160 c-2
88 -7 207 -11 265 -6 96 -7 89 -8 -88 -1 -126 -5 -191 -12 -187 -6 4 -11 -45
-12 -137 -2 -140 -2 -141 -8 -48 -3 52 -7 82 -9 65 -3 -33 -18 -76 -22 -60 -1
6 -5 -12 -9 -40 -4 -27 -8 164 -10 425 l-4 475 -6 -300 c-10 -444 -14 -465
-20 -110 l-5 320 -5 -295 c-4 -285 -4 -289 -10 -125 l-6 170 -3 -195 c-2 -117
-7 -181 -11 -160 -5 22 -9 -26 -11 -130 l-3 -165 -6 120 c-3 66 -8 109 -11 95
-6 -23 -6 -22 -8 8 -1 29 -21 48 -21 20 0 -9 -4 -8 -10 2 -5 8 -10 51 -11 95
l-1 80 -12 -70 c-6 -41 -14 -65 -19 -58 -4 7 -14 10 -21 7 -14 -5 -26 78 -26
184 0 28 -4 52 -10 52 -6 0 -11 162 -13 453 l-2 452 -3 -542 c-1 -306 -6 -543
-11 -543 -5 0 -12 10 -17 22 -5 17 -9 3 -14 -52 l-6 -75 -3 60 c-2 33 -7 105
-11 160 -6 94 -7 89 -10 -85 -3 -242 -15 -292 -21 -87 -3 104 -8 160 -15 165
-7 4 -14 18 -17 32 -3 17 -5 11 -7 -20 -3 -45 -3 -45 -10 15 -4 33 -8 108 -9
168 -1 64 -5 107 -11 107 -6 0 -10 -91 -11 -252 -1 -139 -5 -264 -9 -278 -5
-15 -9 43 -10 145 -1 102 -5 160 -10 145 -5 -15 -9 33 -10 125 -2 208 -18 157
-22 -70 l-2 -180 -3 158 c-2 93 -7 157 -13 157 -6 0 -11 -123 -12 -327 l-3
-328 -5 275 -5 275 -5 -215 -4 -215 -6 235 -6 235 -3 -205 c-3 -128 -7 -188
-11 -160 -6 39 -7 40 -8 13 -2 -35 -16 -44 -26 -17 -3 9 -6 48 -7 87 -1 103
-8 70 -18 -79 l-8 -129 -2 200 c-1 110 -6 207 -11 215 -8 13 -10 12 -10 -2 0
-10 -4 -18 -10 -18 -6 0 -10 -28 -11 -62 0 -35 -4 -85 -9 -113 -7 -47 -7 -44
-9 35 -2 115 -17 136 -24 34 -3 -44 -10 -99 -15 -124 l-9 -45 -2 60 c-1 33 -5
85 -9 115 -5 42 -8 14 -12 -122 -5 -161 -10 -201 -26 -186 -3 3 -8 63 -11 132
-3 69 -10 126 -14 126 -5 0 -10 51 -12 113 l-3 112 -2 -132 c-2 -108 -5 -133
-16 -133 -10 0 -16 14 -19 43 -2 25 -4 11 -5 -36 -1 -49 -6 -76 -12 -72 -6 4
-11 67 -11 153 -2 178 -7 161 -18 -58 l-8 -165 -3 160 c-2 115 -5 145 -10 105
l-7 -55 -3 60 -2 60 -10 -40 c-5 -22 -13 -132 -18 -245 -8 -209 -18 -274 -31
-215 -4 17 -7 49 -8 73 0 23 -5 42 -11 42 -6 0 -10 65 -10 175 0 110 -4 175
-10 175 -6 0 -10 -36 -10 -87 0 -179 -14 -411 -21 -363 -4 25 -8 83 -8 130 -2
184 -30 262 -32 87 -1 -94 -3 -100 -13 -36 -4 22 -12 36 -21 36 -12 0 -15 -19
-17 -101 l-2 -101 -6 80 -6 80 -3 -85 c-3 -63 -5 -77 -11 -55 -4 17 -8 22 -9
13 0 -10 -8 -18 -16 -18 -13 0 -15 486 -15 4315 0 3829 2 4315 15 4315 8 0 16
-8 16 -17 1 -10 5 -4 9 12 6 22 8 8 11 -55 l3 -85 6 80 6 80 2 -101 c2 -82 5
-101 17 -101 9 0 17 14 21 36 10 64 12 58 13 -36 2 -175 30 -97 32 87 0 47 4
105 8 130 7 48 21 -184 21 -362 0 -52 4 -88 10 -88 6 0 10 65 10 175 0 110 4
175 10 175 6 0 11 19 11 43 1 23 4 56 8 72 13 59 23 -6 31 -215 5 -113 13
-223 18 -245 l10 -40 2 60 3 60 7 -55 c5 -40 8 -10 10 105 l3 160 8 -165 c11
-219 16 -236 18 -58 0 86 5 149 11 153 6 4 11 -23 12 -72 1 -47 3 -61 5 -35 3
28 9 42 19 42 11 0 14 -25 16 -132 l2 -133 3 113 c2 61 7 112 12 112 4 0 11
57 14 126 3 69 8 129 11 132 16 15 21 -25 26 -186 4 -136 7 -164 12 -122 4 30
8 82 9 115 l2 60 9 -45 c5 -25 12 -80 15 -124 7 -102 22 -81 24 34 2 79 2 82
9 35 5 -27 9 -78 9 -112 1 -35 5 -63 11 -63 6 0 10 -8 10 -17 0 -15 2 -16 10
-3 5 8 10 105 11 215 l2 200 8 -129 c10 -149 17 -182 18 -79 1 39 4 78 7 87
10 27 24 18 26 -16 1 -28 2 -27 8 12 4 28 8 -32 11 -160 l3 -205 6 235 6 235
4 -215 5 -215 5 275 5 275 3 -327 c1 -205 6 -328 12 -328 6 0 11 64 13 158 l3
157 2 -180 c4 -227 20 -278 22 -70 1 92 5 140 10 125 5 -15 9 43 10 145 1 102
5 160 10 145 4 -14 8 -139 9 -277 1 -162 5 -253 11 -253 6 0 10 43 11 108 1
59 5 134 9 167 7 60 7 60 10 15 2 -31 4 -37 7 -20 3 14 10 28 17 32 7 5 12 61
15 165 6 205 18 155 21 -87 3 -174 4 -179 10 -85 4 55 9 127 11 160 l3 60 6
-75 c5 -55 9 -69 14 -52 5 12 12 22 17 22 5 0 10 -237 11 -542 l3 -543 2 453
c2 290 7 452 13 452 6 0 10 24 10 53 0 105 12 188 26 183 7 -3 17 0 21 7 5 7
13 -17 19 -58 l12 -70 1 80 c1 44 6 87 11 95 6 10 10 11 10 3 0 -29 20 -10 21
20 2 29 2 30 8 7 3 -14 8 29 11 95 l6 120 3 -165 c2 -104 6 -152 11 -130 4 21
9 -43 11 -160 l3 -195 6 170 c6 164 6 160 10 -125 l5 -295 5 320 c6 355 10
334 20 -110 l6 -300 4 475 c2 261 6 453 10 425 4 -27 8 -45 9 -40 4 16 19 -27
22 -60 2 -16 6 13 9 65 6 93 6 92 8 -48 1 -92 6 -141 12 -137 7 4 11 -61 12
-187 1 -177 2 -184 8 -88 4 58 9 177 11 265 l3 160 6 -220 6 -220 3 230 c2
132 7 217 11 200 6 -25 8 -19 10 30 1 33 4 53 7 45 2 -8 8 -24 13 -35 5 -11
11 -31 13 -45 2 -14 5 3 6 38 0 34 3 62 5 62 32 0 36 -14 38 -129 l1 -116 7
123 c8 132 19 173 21 76 2 -96 17 -123 19 -34 2 53 4 66 9 45 7 -29 7 -29 13
-6 4 12 11 20 17 17 5 -4 12 4 14 16 2 13 6 -53 7 -147 2 -93 5 -145 7 -115 2
30 6 66 10 80 6 23 7 21 13 -15 5 -24 8 17 9 103 0 93 5 141 11 137 6 -3 11 6
12 22 1 15 5 -19 8 -77 l6 -105 2 106 c1 59 5 122 9 140 9 39 8 44 18 -113z
m3713 -158 c1 109 5 141 14 132 7 -7 14 -121 20 -363 8 -350 16 -453 20 -263
2 73 4 54 8 -76 5 -147 6 -116 10 200 2 226 6 339 10 285 3 -49 7 -74 9 -55 2
29 4 32 11 15 6 -15 9 -4 11 40 l2 60 11 -75 11 -75 5 135 6 135 3 -175 c4
-187 13 -175 26 31 6 81 10 100 30 125 l24 29 2 -265 c1 -146 5 -248 9 -227 9
50 20 58 21 16 0 -28 2 -30 9 -14 5 11 9 -1665 9 -3810 0 -2145 -4 -3821 -9
-3810 -7 16 -9 14 -9 -14 -1 -42 -12 -34 -21 16 -4 21 -8 -81 -9 -227 l-2
-265 -24 29 c-20 25 -24 44 -30 125 -13 206 -22 218 -26 31 l-3 -175 -6 135
-5 135 -11 -75 -11 -75 -2 60 c-2 44 -5 55 -11 40 -7 -17 -9 -14 -11 15 -2 19
-6 -5 -9 -55 -4 -54 -8 59 -10 285 -4 316 -5 347 -10 200 -4 -130 -6 -149 -8
-76 -4 190 -12 87 -20 -263 -6 -242 -13 -356 -20 -363 -9 -9 -13 23 -14 133
l-2 144 -6 -195 c-5 -173 -6 -181 -8 -70 -3 160 -21 198 -24 50 -2 -123 -13
180 -19 525 -4 216 -4 213 -9 -120 l-5 -340 -4 435 c-2 239 -7 534 -10 655 -6
190 -8 151 -11 -285 -1 -278 -6 -593 -10 -700 l-6 -195 -3 280 c-3 338 -19
415 -21 105 -1 -118 -5 -206 -7 -196 -4 14 -7 16 -13 6 -8 -12 -12 13 -23 130
-3 23 -5 14 -7 -25 l-2 -60 -11 55 c-16 78 -16 7912 0 7990 l11 55 2 -60 c2
-39 4 -48 7 -25 11 117 15 142 23 130 6 -10 9 -8 13 6 2 10 6 -78 7 -196 2
-310 18 -233 21 105 l3 280 6 -195 c4 -107 9 -422 10 -700 3 -436 5 -475 11
-285 3 121 8 416 10 655 l4 435 5 -340 c5 -333 5 -336 9 -120 6 345 17 648 19
525 3 -148 21 -110 24 50 2 111 3 103 8 -70 l6 -195 2 145z m-669 -4016 c1
-3094 -6 -4634 -20 -4584 -4 14 -8 124 -10 245 l-3 220 -6 -225 -6 -225 -2
240 c-1 139 -6 234 -11 226 -13 -20 -22 92 -30 369 -6 226 -7 234 -11 105 -13
-500 -17 399 -17 3450 0 3051 4 3950 17 3450 4 -129 5 -121 11 105 8 277 17
389 30 369 5 -8 10 87 11 226 l2 240 6 -225 6 -225 2 211 c1 116 5 227 10 245
14 64 19 -1056 21 -4217z m-5186 -179 c0 -2535 -4 -4068 -10 -4185 -9 -161
-10 -93 -13 515 l-3 700 -8 -475 c-5 -261 -10 -520 -12 -575 -1 -55 -3 1754
-3 4020 0 2266 2 4075 3 4020 2 -55 7 -314 12 -575 l8 -475 3 700 c3 608 4
676 13 515 6 -117 10 -1650 10 -4185z m3926 3445 c8 -21 10 -15 12 40 12 424
16 -266 16 -3485 0 -3219 -4 -3909 -16 -3485 -2 55 -4 61 -12 40 -6 -14 -16
-227 -22 -475 -8 -279 -14 -421 -18 -375 -9 106 -10 8444 -2 8565 6 78 10 1
20 -350 6 -247 16 -461 22 -475z m111 442 l6 -447 2 418 c1 276 5 416 12 412
7 -4 10 -1438 10 -4270 0 -2832 -3 -4266 -10 -4270 -7 -4 -11 136 -12 412 l-2
418 -6 -447 c-3 -245 -8 -450 -12 -454 -5 -4 -8 96 -9 222 -1 126 -4 218 -8
204 -7 -24 -7 -24 -14 9 -4 18 -7 1776 -7 3906 0 2130 3 3888 7 3906 7 33 7
33 14 9 4 -14 7 78 8 204 1 126 4 226 9 222 4 -4 9 -209 12 -454z m-6447 -902
c4 52 9 111 10 130 2 19 4 -1382 4 -3115 0 -1732 -4 -3098 -8 -3036 -5 63 -10
122 -12 130 -3 9 -6 -306 -8 -699 l-3 -715 -6 897 c-4 494 -10 901 -13 905 -4
3 -8 -63 -8 -148 -1 -85 -5 -476 -8 -869 -4 -393 -7 1198 -7 3535 0 2338 3
3928 7 3535 3 -393 8 -785 9 -870 l4 -155 6 200 c4 110 9 517 11 905 l4 705 5
-715 c3 -443 8 -679 13 -620z m278 1122 c1 -106 5 -161 9 -137 5 29 8 10 9
-67 1 -89 4 -108 16 -108 11 0 15 -14 17 -57 l1 -58 7 75 c4 41 11 122 16 180
6 79 10 96 15 70 5 -30 7 -26 8 25 3 82 14 143 24 127 5 -6 15 -94 24 -195 8
-100 18 -189 22 -197 3 -8 8 95 11 230 l6 245 4 -325 5 -325 5 325 c3 179 7
316 8 305 2 -11 10 -69 19 -130 23 -167 30 -1121 30 -4090 0 -2969 -7 -3923
-30 -4090 -9 -60 -17 -119 -19 -130 -1 -11 -5 126 -8 305 l-5 325 -5 -325 -4
-325 -6 245 c-3 135 -8 238 -11 230 -4 -8 -14 -97 -22 -197 -9 -101 -19 -189
-24 -195 -10 -16 -21 45 -24 127 -1 51 -3 55 -8 25 -5 -26 -9 -9 -15 70 -5 58
-12 139 -16 180 l-7 75 -1 -57 c-2 -44 -6 -58 -17 -58 -12 0 -15 -19 -16 -107
-1 -78 -4 -97 -9 -68 -4 24 -8 -31 -9 -137 -1 -237 -20 -250 -23 -16 l-2 173
-3 -140 c-5 -249 -29 -211 -34 55 -1 91 -5 138 -7 105 -3 -44 -6 -55 -12 -40
-5 12 -9 -27 -9 -101 -1 -96 -4 -123 -15 -127 -9 -4 -17 1 -19 11 -3 9 -5 0
-6 -21 -1 -22 -6 -36 -13 -35 -6 2 -15 -8 -19 -22 -4 -14 -8 85 -9 220 -3 225
-4 236 -11 131 -5 -62 -10 -115 -12 -117 -13 -14 -17 864 -17 4031 0 3167 4
4045 17 4031 2 -2 7 -55 12 -117 7 -105 8 -94 11 131 1 135 5 234 9 220 4 -14
13 -24 19 -22 7 1 12 -13 13 -35 1 -21 3 -30 6 -21 2 10 10 15 19 11 11 -4 14
-31 15 -127 0 -74 4 -113 9 -101 6 15 9 4 12 -40 2 -33 6 14 7 105 5 266 29
304 34 55 l3 -140 2 173 c3 234 22 221 23 -16z m1789 -312 c2 3 6 100 9 215 6
206 6 203 14 -190 4 -220 12 -450 17 -511 6 -70 10 -1266 10 -3309 0 -2043 -4
-3239 -10 -3309 -5 -61 -13 -291 -17 -511 -8 -393 -8 -396 -14 -190 -3 116 -7
212 -9 215 -3 3 -7 -107 -10 -245 -4 -165 -7 24 -10 555 -4 759 -5 780 -10
360 -4 -317 -6 -388 -9 -245 -2 110 -7 295 -11 410 -6 187 -7 162 -10 -235 -2
-259 -6 -418 -10 -380 -10 85 -10 7065 0 7150 4 38 8 -121 10 -380 3 -397 4
-422 10 -235 4 116 9 300 11 410 3 143 5 72 9 -245 5 -420 6 -399 10 360 3
531 6 720 10 555 3 -137 7 -248 10 -245z m-1172 -3797 c-1 -2446 -5 -3899 -9
-3393 -13 1809 -7 7670 8 7670 1 0 2 -1925 1 -4277z m-80 2 c0 -2321 -3 -4231
-7 -4245 -4 -15 -10 34 -14 120 -9 189 -9 8061 0 8250 4 86 10 135 14 120 4
-14 7 -1924 7 -4245z m648 4113 c6 -9 11 0 15 27 3 22 7 -107 8 -287 1 -320 5
-374 22 -346 5 7 9 -210 9 -485 0 -330 3 -496 10 -492 7 4 10 -842 10 -2530 0
-1688 -3 -2534 -10 -2530 -7 4 -10 -162 -10 -492 0 -275 -4 -492 -9 -485 -17
28 -21 -26 -22 -346 -1 -180 -5 -309 -8 -287 -9 57 -23 29 -29 -59 -9 -112
-20 -45 -23 139 -2 132 -4 147 -9 85 -4 -41 -6 1748 -6 3975 0 2228 2 4016 6
3975 5 -62 7 -48 8 76 1 83 5 167 9 185 7 30 8 25 14 -38 4 -39 11 -77 15 -85z
m5452 -4113 c0 -2299 -4 -4193 -8 -4210 -4 -16 -9 233 -11 555 l-4 585 -5
-420 c-3 -231 -5 1339 -5 3490 0 2151 2 3721 5 3490 l5 -420 4 585 c2 322 7
572 11 555 4 -16 8 -1911 8 -4210z m-6178 3875 c3 258 6 104 11 -560 9 -1330
10 -4912 2 -6326 -6 -833 -10 -1107 -13 -864 l-5 355 -4 -355 -4 -355 -10 165
c-14 223 -16 7698 -2 8045 l10 250 5 -355 5 -355 5 355z m1458 -235 c2 22 10
110 18 195 8 85 19 193 23 240 5 58 9 -45 11 -325 3 -380 4 -397 11 -225 14
319 15 307 19 -170 l4 -465 6 347 c3 190 8 350 13 354 4 4 7 -179 7 -406 0
-227 3 -410 7 -407 3 4 9 35 13 69 4 35 7 -1246 7 -2847 0 -1600 -3 -2882 -7
-2847 -4 34 -10 65 -13 69 -4 3 -7 -180 -7 -407 0 -227 -3 -410 -7 -406 -5 4
-10 164 -13 354 l-6 347 -4 -465 c-4 -477 -5 -489 -19 -170 -7 172 -8 155 -11
-225 -2 -279 -6 -383 -11 -325 -17 185 -38 407 -42 440 -2 19 -6 -102 -8 -270
-3 -270 -4 -282 -6 -105 -3 138 -7 201 -15 206 -20 13 -27 964 -27 3804 0
2854 7 3796 27 3803 9 3 13 61 14 205 2 186 3 178 8 -103 3 -168 7 -287 8
-265z m262 295 c4 -102 10 -333 12 -515 l3 -330 6 490 c7 583 25 750 30 280 1
-182 5 -270 9 -225 5 62 7 45 10 -95 l4 -170 6 180 c3 99 6 -1498 6 -3550 0
-2051 -3 -3649 -6 -3550 l-6 180 -4 -170 c-3 -140 -5 -157 -10 -95 -4 45 -8
-43 -9 -225 -5 -470 -23 -303 -30 280 l-6 490 -3 -330 c-4 -367 -16 -676 -30
-745 -6 -28 -9 1588 -9 4165 0 2577 3 4193 9 4165 5 -25 13 -128 18 -230z
m298 -3937 c-1 -2282 -5 -3837 -8 -3458 -7 648 -11 775 -30 775 -4 0 -11 -98
-14 -217 -3 -120 -10 -285 -15 -368 l-8 -150 -3 130 c-3 122 -4 125 -10 55 -6
-74 -6 -75 -8 -17 -1 31 -6 57 -12 57 -5 0 -11 -1 -11 -2 -1 -2 -5 -86 -9
-188 -5 -146 -7 -74 -10 335 -4 503 -5 510 -10 215 -3 -168 -6 -296 -8 -286
-2 16 -5 17 -14 8 -8 -8 -15 -56 -19 -125 -3 -62 -5 1396 -5 3238 0 1843 2
3300 5 3238 4 -69 11 -117 19 -125 9 -9 12 -8 14 7 2 11 5 -117 8 -285 5 -295
6 -288 10 215 3 409 5 481 10 335 4 -102 8 -186 9 -187 0 -2 6 -3 11 -3 6 0
11 26 12 58 2 57 2 56 8 -18 6 -70 7 -67 10 55 l3 130 8 -150 c5 -82 12 -248
15 -367 6 -207 14 -258 28 -185 4 17 10 346 13 730 3 383 7 697 9 697 2 0 3
-1866 2 -4147z m3823 3587 c3 -333 5 -398 9 -260 5 165 6 146 10 -180 l4 -365
6 235 c3 129 6 -1227 6 -3015 0 -1787 -3 -3144 -6 -3015 l-6 235 -4 -365 c-4
-326 -5 -345 -10 -180 -4 138 -6 73 -9 -260 -2 -435 -11 -569 -24 -406 -4 44
-7 235 -8 425 -1 190 -5 357 -9 371 -4 14 -9 -114 -11 -290 l-3 -315 -7 235
c-3 129 -8 426 -10 660 -2 308 -5 381 -9 265 -3 -88 -6 1100 -6 2640 0 1540 3
2728 6 2640 4 -116 7 -43 9 265 2 234 7 531 10 660 l7 235 3 -315 c2 -176 7
-304 11 -290 4 14 8 181 9 371 1 190 4 381 8 425 13 163 22 29 24 -406z
m-5623 -3587 c-1 -2227 -5 -3956 -8 -3843 -4 113 -8 259 -9 324 -1 128 -10
145 -21 44 -4 -35 -7 1530 -7 3477 0 1947 3 3512 7 3477 4 -34 9 -65 12 -67 5
-6 18 360 18 527 0 59 2 108 5 108 3 0 4 -1821 3 -4047z m199 -2000 c-1 -1104
-2 -204 -2 2002 0 2206 1 3109 2 2008 2 -1101 2 -2905 0 -4010z m812 2071 c1
-3222 -3 -4084 -17 -4069 -3 3 -9 148 -13 323 -4 174 -11 445 -16 602 l-8 285
-5 -285 -5 -285 -3 413 c-2 358 -4 412 -17 412 -13 0 -15 -87 -17 -717 l-1
-718 -8 600 c-10 736 -15 812 -18 290 -2 -303 -5 -393 -14 -370 -7 21 -11
1006 -11 3450 0 2444 4 3429 11 3450 9 23 12 -67 14 -370 3 -522 8 -446 18
290 l8 600 1 -717 c2 -631 4 -718 17 -718 13 0 15 54 17 413 l3 412 5 -285 5
-285 8 285 c5 157 12 429 17 605 5 176 9 322 11 325 12 23 16 -885 18 -3936z
m-3019 3126 c3 300 5 -1138 5 -3195 0 -2057 -2 -3495 -5 -3195 l-5 545 -5
-675 -4 -675 -7 595 c-9 849 -10 5675 -1 6615 l7 790 5 -675 5 -675 5 545z
m8710 70 l5 275 5 -325 5 -325 5 395 5 395 5 -445 5 -445 5 325 c3 179 5
-1223 5 -3115 0 -1892 -2 -3294 -5 -3115 l-5 325 -5 -445 -5 -445 -5 395 -5
395 -5 -325 -5 -325 -5 275 c-5 258 -6 244 -10 -225 -3 -376 -6 -452 -10 -305
l-5 195 -6 -125 c-2 -69 -5 1608 -5 3725 0 2118 3 3794 6 3725 l6 -125 4 195
c3 132 6 35 10 -305 5 -470 5 -483 10 -225z m-6792 -3267 c-1 -2188 -5 -3910
-8 -3828 -9 193 -12 7347 -3 7608 3 109 8 197 10 197 1 0 2 -1790 1 -3977z
m6559 2 c0 -1479 -3 -2980 -6 -3335 l-7 -645 -4 580 c-2 319 -7 537 -10 485
l-6 -95 -2 102 c-2 86 -4 101 -17 97 -13 -5 -15 311 -15 2811 0 2500 2 2816
15 2811 13 -4 15 11 17 97 l2 102 6 -95 c3 -52 8 166 10 485 l4 580 7 -645 c3
-355 6 -1855 6 -3335z m-8407 3060 c3 270 5 -1107 5 -3060 0 -1952 -2 -3329
-5 -3060 l-5 490 -5 -695 -5 -695 -5 700 -5 700 -4 -485 c-2 -267 -7 -512 -11
-545 -4 -33 -8 1582 -9 3589 0 2007 2 3646 7 3642 4 -4 9 -249 12 -544 l6
-537 4 700 5 700 5 -695 5 -695 5 490z m900 -215 c3 80 6 -1200 6 -2845 0
-1644 -3 -2925 -6 -2845 -3 83 -8 -123 -10 -480 -4 -604 -5 -613 -10 -260 l-5
365 -5 -245 c-4 -167 -6 -57 -8 345 -1 385 -6 585 -12 575 -6 -10 -10 889 -10
2545 0 1656 4 2555 10 2545 6 -10 11 190 12 575 2 426 4 522 8 345 l6 -245 4
365 c5 349 5 337 10 -260 3 -344 7 -560 10 -480z m7959 600 c2 41 7 127 11
190 l7 115 3 -150 c2 -98 5 -133 9 -100 6 48 6 47 14 -35 4 -47 7 -1606 7
-3465 0 -1859 -3 -3418 -7 -3465 -8 -82 -8 -83 -14 -35 -4 32 -7 -3 -9 -100
l-3 -150 -8 140 c-14 248 -15 245 -19 -50 -3 -274 -3 -284 -13 -185 -15 141
-16 7407 -2 7635 l10 160 5 -290 c3 -159 7 -256 9 -215z m-6571 -3447 c-1
-2106 -5 -3751 -9 -3658 -4 94 -12 258 -18 365 -13 252 -14 6328 0 6580 5 96
12 257 15 358 4 100 8 182 10 182 2 0 3 -1722 2 -3827z m-110 0 c-1 -2100 -5
-3624 -9 -3388 -15 983 -8 7205 8 7205 1 0 2 -1718 1 -3817z m6792 3367 l4
345 7 -365 c3 -201 6 -1706 6 -3345 0 -1639 -3 -3144 -6 -3345 l-7 -365 -4
345 -5 345 -5 -400 c-3 -220 -5 1319 -5 3420 0 2101 2 3640 5 3420 l5 -400 5
345z m-6270 -65 c3 44 6 0 10 -120 5 -158 6 -121 9 215 4 446 17 464 22 30 1
-149 5 -232 8 -190 l6 75 7 -55 c10 -72 10 -6438 0 -6510 l-7 -55 -6 75 c-3
42 -7 -41 -8 -190 -5 -434 -18 -416 -22 30 -3 329 -4 370 -9 215 -4 -136 -7
-170 -11 -120 -3 39 -7 -58 -9 -215 -3 -283 -3 -284 -11 -130 -23 446 -29
1262 -29 3665 1 2389 6 3071 27 3587 l8 193 5 -285 c3 -157 7 -253 10 -215z
m-2340 430 c7 17 9 17 9 3 2 -35 21 -17 22 20 1 33 2 34 9 12 10 -33 10 -7497
0 -7530 -7 -22 -8 -21 -9 13 -1 36 -20 54 -22 20 0 -15 -2 -15 -9 2 -7 16 -9
12 -9 -19 -1 -31 -4 -37 -13 -28 -9 9 -13 163 -17 615 -3 331 -8 586 -12 567
-3 -19 -6 1148 -6 2595 0 1447 3 2614 6 2595 4 -19 9 235 12 565 3 356 9 606
14 615 8 11 11 5 14 -25 2 -32 5 -36 11 -20z m3470 -765 c10 433 17 -632 19
-2851 1 -2239 -7 -3490 -19 -3079 -4 118 -7 12 -10 -325 l-4 -500 -7 310 c-9
431 -11 6360 -1 6861 l7 409 5 -500 c3 -300 7 -430 10 -325z m3952 461 c2
-282 3 -282 17 -11 l8 155 3 -235 3 -235 11 255 11 255 7 -250 c5 -137 8
-1649 8 -3360 0 -1710 -3 -3222 -8 -3360 l-7 -250 -11 255 -11 255 -3 -235 -3
-235 -8 155 c-14 271 -15 271 -17 -11 -2 -208 -5 -285 -16 -309 -13 -31 -14
-26 -21 89 -3 66 -10 121 -15 121 -17 0 -22 882 -22 3525 0 2643 5 3525 22
3525 5 0 12 55 15 121 7 115 8 120 21 89 11 -24 14 -101 16 -309z m1006 -584
c1 188 6 304 12 308 7 4 10 -1049 10 -3151 0 -2073 -3 -3155 -10 -3148 -6 6
-11 130 -13 309 -1 191 -4 80 -7 -305 l-4 -605 -7 625 c-9 893 -10 5063 -1
6046 l7 829 5 -605 c3 -387 6 -496 8 -303z m-7158 693 c7 0 10 -1284 10 -3535
0 -2350 -3 -3535 -10 -3535 -6 0 -11 -35 -12 -82 -6 -263 -15 1589 -17 3388
-1 1840 9 4078 17 3847 2 -46 7 -83 12 -83z m6038 -148 c1 15 7 30 12 33 7 4
10 -1139 10 -3421 0 -2074 -4 -3424 -9 -3418 -5 5 -11 20 -14 34 -2 14 -6 -18
-8 -70 -10 -306 -16 884 -18 3351 -1 2594 6 3797 20 3559 3 -52 6 -83 7 -68z
m381 -3387 c0 -1897 -4 -3470 -8 -3495 -4 -26 -11 149 -17 415 -9 455 -9 457
-14 225 -3 -129 -6 1156 -6 2855 0 1700 3 2984 6 2855 5 -232 5 -230 14 225 6
266 13 441 17 415 4 -25 8 -1597 8 -3495z m-6052 0 c0 -1358 -3 -2699 -6
-2980 -4 -280 -7 1060 -7 2980 0 1920 3 3261 7 2980 3 -280 6 -1621 6 -2980z
m231 -2 c-1 -2654 -4 -3337 -12 -2993 -19 849 -10 6430 10 6430 2 0 3 -1547 2
-3437z m5903 3247 c2 58 5 -1402 5 -3245 0 -1842 -3 -3303 -5 -3245 l-6 105
-5 -150 c-3 -82 -6 1398 -6 3290 0 1892 3 3373 6 3290 l5 -150 6 105z m-201
-295 c2 -159 6 -270 10 -245 4 25 7 -1192 7 -2705 0 -1512 -3 -2730 -7 -2705
-4 25 -8 -85 -10 -245 -1 -159 -6 -324 -10 -365 -4 -41 -7 1450 -7 3315 0
1865 3 3356 7 3315 4 -41 9 -205 10 -365z m-5550 -2950 c0 -2243 -3 -3375 -10
-3375 -7 0 -10 1132 -10 3375 0 2243 3 3375 10 3375 7 0 10 -1132 10 -3375z
m6367 -1677 c-1 -926 -2 -171 -2 1677 0 1848 1 2605 2 1683 2 -922 2 -2434 0
-3360z m-7969 1675 c-2 -1803 -4 -3149 -5 -2990 -2 180 -7 287 -13 287 -7 0
-10 936 -10 2705 0 1797 3 2705 10 2705 6 0 10 102 10 285 0 157 2 285 5 285
3 0 4 -1475 3 -3277z m7940 0 c-1 -1770 -5 -3085 -8 -2923 -16 685 -10 6140 7
6140 1 0 2 -1448 1 -3217z m300 0 c-1 -1770 -5 -3087 -9 -2928 -15 673 -9
6145 8 6145 1 0 2 -1448 1 -3217z m550 2 c0 -1667 -4 -3073 -8 -3125 -3 -52
-7 1354 -7 3125 0 1771 4 3177 7 3125 4 -52 8 -1458 8 -3125z m-1601 -1597
c-1 -882 -2 -163 -2 1597 0 1760 1 2481 2 1603 2 -878 2 -2318 0 -3200z m970
0 c-1 -882 -2 -163 -2 1597 0 1760 1 2481 2 1603 2 -878 2 -2318 0 -3200z
m-8306 4707 c3 22 6 -1377 6 -3110 0 -1732 -3 -3132 -6 -3110 -5 39 -5 38 -11
-20 -4 -33 -7 1376 -7 3130 0 1755 3 3163 7 3130 6 -58 6 -59 11 -20z m7617
-3112 c-1 -1743 -5 -3067 -8 -2943 -3 124 -7 181 -8 128 -1 -57 -6 -98 -12
-98 -6 0 -11 -37 -11 -87 -2 -81 -2 -84 -9 -38 -11 65 -11 6015 0 6080 7 46 7
43 9 -37 0 -49 5 -88 11 -88 5 0 11 -44 13 -97 1 -54 4 2 5 125 1 122 4 222 7
222 3 0 4 -1425 3 -3167z m-150 0 c-1 -1737 -5 -3090 -9 -3008 -4 83 -12 209
-17 280 -14 178 -14 5284 0 5460 5 72 12 196 14 278 3 81 7 147 10 147 2 0 3
-1421 2 -3157z m-7508 2947 c7 0 10 -1071 10 -2945 0 -1874 -3 -2945 -10
-2945 -5 0 -11 -37 -13 -82 -1 -46 -3 1317 -3 3027 0 1711 2 3073 3 3028 2
-46 8 -83 13 -83z m7397 -4457 c-1 -835 -2 -155 -2 1512 0 1667 1 2350 2 1518
2 -831 2 -2195 0 -3030z m-7437 1512 c0 -1642 -4 -2985 -8 -2985 -17 0 -22
677 -22 2985 0 2308 5 2985 22 2985 4 0 8 -1343 8 -2985z m9048 0 c0 -1474 -4
-2743 -7 -2820 -4 -77 -8 1192 -8 2820 0 1628 4 2897 8 2820 3 -77 7 -1346 7
-2820z m-5810 -2 c-1 -1622 -3 -2926 -5 -2898 -3 28 -7 44 -12 37 -16 -27 -21
593 -21 2863 0 2288 5 2890 21 2863 5 -8 9 6 9 35 0 26 2 47 5 47 3 0 4 -1326
3 -2947z m3840 0 c0 -1616 -4 -2900 -9 -2853 -9 105 -12 5535 -2 5683 3 59 8
107 10 107 1 0 2 -1322 1 -2937z m-7501 2 c0 -1347 -3 -2556 -6 -2685 -4 -129
-7 1079 -7 2685 0 1606 3 2814 7 2685 3 -129 6 -1337 6 -2685z m372 -2 c-1
-1583 -4 -2868 -6 -2855 -2 12 -10 22 -17 22 -10 0 -15 37 -19 142 -9 186 -9
5200 0 5386 5 109 9 142 20 142 7 0 13 9 13 20 0 11 2 20 5 20 3 0 4 -1295 4
-2877z m-302 -1415 c-1 -783 -2 -145 -2 1417 0 1562 1 2202 2 1423 2 -779 2
-2057 0 -2840z m8230 0 c-1 -783 -2 -145 -2 1417 0 1562 1 2202 2 1423 2 -779
2 -2057 0 -2840z m-6610 15 c-1 -774 -2 -143 -2 1402 0 1546 1 2179 2 1408 2
-771 2 -2035 0 -2810z m-1568 1400 c-1 -1501 -5 -2701 -9 -2668 -10 74 -13
5212 -4 5318 4 43 9 77 10 77 2 0 3 -1227 3 -2727z m1321 2 c0 -1783 -3 -2685
-10 -2685 -7 0 -10 902 -10 2685 0 1783 3 2685 10 2685 7 0 10 -902 10 -2685z
m997 -1342 c-1 -741 -2 -137 -2 1342 0 1480 1 2086 2 1348 2 -738 2 -1948 0
-2690z m-2410 65 c-1 -706 -2 -131 -2 1277 0 1408 1 1985 2 1283 2 -702 2
-1854 0 -2560z m570 4 c-1 -697 -2 -124 -2 1273 0 1397 1 1967 2 1267 2 -701
2 -1844 0 -2540z m1882 1273 c0 -1347 -4 -2470 -8 -2495 -5 -25 -8 1098 -8
2495 0 1397 3 2520 8 2495 4 -25 8 -1147 8 -2495z m18 -1273 c-1 -697 -2 -124
-2 1273 0 1397 1 1967 2 1267 2 -701 2 -1844 0 -2540z m5670 11 c-1 -697 -2
-130 -2 1262 0 1392 1 1962 2 1268 2 -694 2 -1832 0 -2530z m-8200 10 c-1
-692 -2 -128 -2 1252 0 1381 1 1947 2 1258 2 -688 2 -1818 0 -2510z m8230 0
c-1 -692 -2 -128 -2 1252 0 1381 1 1947 2 1258 2 -688 2 -1818 0 -2510z
m-6220 20 c-1 -681 -2 -126 -2 1232 0 1359 1 1916 2 1238 2 -677 2 -1789 0
-2470z"/>
</g>
</svg>
